<svg width="58" height="10" viewBox="0 0 58 10" fill="none" xmlns="http://www.w3.org/2000/svg">
<path d="M9 4.5C9 5.69347 8.52589 6.83807 7.68198 7.68198C6.83807 8.52589 5.69347 9 4.5 9C3.30653 9 2.16193 8.52589 1.31802 7.68198C0.474106 6.83807 1.8021e-07 5.69347 0 4.5L0.968078 4.5C0.968078 5.43672 1.34019 6.33508 2.00255 6.99745C2.66492 7.65981 3.56328 8.03192 4.5 8.03192C5.43672 8.03192 6.33508 7.65981 6.99745 6.99745C7.65981 6.33508 8.03192 5.43672 8.03192 4.5H9Z" fill="#12C868"/>
<path d="M0.00129711 4.5C0.00164098 3.30653 0.476076 2.16207 1.32023 1.3184C2.16439 0.47473 3.30912 0.000954179 4.50259 0.00129796C5.69607 0.00164174 6.84052 0.476077 7.68419 1.32023C8.52786 2.16439 9.00164 3.30912 9.0013 4.50259L8.03322 4.50231C8.03349 3.56559 7.66164 2.66713 6.99946 2.00457C6.33729 1.34202 5.43904 0.969645 4.50231 0.969376C3.56559 0.969106 2.66712 1.34096 2.00457 2.00313C1.34202 2.66531 0.969645 3.56356 0.969375 4.50028L0.00129711 4.5Z" fill="#12C868"/>
<path d="M25 4.5C25 5.69347 24.5259 6.83807 23.682 7.68198C22.8381 8.52589 21.6935 9 20.5 9C19.3065 9 18.1619 8.52589 17.318 7.68198C16.4741 6.83807 16 5.69347 16 4.5L16.9681 4.5C16.9681 5.43672 17.3402 6.33508 18.0026 6.99745C18.6649 7.65981 19.5633 8.03192 20.5 8.03192C21.4367 8.03192 22.3351 7.65981 22.9974 6.99745C23.6598 6.33508 24.0319 5.43672 24.0319 4.5H25Z" fill="#12C868" fill-opacity="0.75"/>
<path d="M16.0013 4.5C16.0016 3.30653 16.4761 2.16207 17.3202 1.3184C18.1644 0.47473 19.3091 0.000954179 20.5026 0.00129796C21.6961 0.00164174 22.8405 0.476077 23.6842 1.32023C24.5279 2.16439 25.0016 3.30912 25.0013 4.50259L24.0332 4.50231C24.0335 3.56559 23.6616 2.66713 22.9995 2.00457C22.3373 1.34202 21.439 0.969645 20.5023 0.969376C19.5656 0.969106 18.6671 1.34096 18.0046 2.00313C17.342 2.66531 16.9696 3.56356 16.9694 4.50028L16.0013 4.5Z" fill="#12C868" fill-opacity="0.75"/>
<path d="M41 4.5C41 5.69347 40.5259 6.83807 39.682 7.68198C38.8381 8.52589 37.6935 9 36.5 9C35.3065 9 34.1619 8.52589 33.318 7.68198C32.4741 6.83807 32 5.69347 32 4.5L32.9681 4.5C32.9681 5.43672 33.3402 6.33508 34.0026 6.99745C34.6649 7.65981 35.5633 8.03192 36.5 8.03192C37.4367 8.03192 38.3351 7.65981 38.9974 6.99745C39.6598 6.33508 40.0319 5.43672 40.0319 4.5H41Z" fill="#12C868" fill-opacity="0.5"/>
<path d="M32.0013 4.5C32.0016 3.30653 32.4761 2.16207 33.3202 1.3184C34.1644 0.47473 35.3091 0.000954179 36.5026 0.00129796C37.6961 0.00164174 38.8405 0.476077 39.6842 1.32023C40.5279 2.16439 41.0016 3.30912 41.0013 4.50259L40.0332 4.50231C40.0335 3.56559 39.6616 2.66713 38.9995 2.00457C38.3373 1.34202 37.439 0.969645 36.5023 0.969376C35.5656 0.969106 34.6671 1.34096 34.0046 2.00313C33.342 2.66531 32.9696 3.56356 32.9694 4.50028L32.0013 4.5Z" fill="#12C868" fill-opacity="0.5"/>
<path d="M57 4.5C57 5.69347 56.5259 6.83807 55.682 7.68198C54.8381 8.52589 53.6935 9 52.5 9C51.3065 9 50.1619 8.52589 49.318 7.68198C48.4741 6.83807 48 5.69347 48 4.5L48.9681 4.5C48.9681 5.43672 49.3402 6.33508 50.0026 6.99745C50.6649 7.65981 51.5633 8.03192 52.5 8.03192C53.4367 8.03192 54.3351 7.65981 54.9974 6.99745C55.6598 6.33508 56.0319 5.43672 56.0319 4.5H57Z" fill="#12C868" fill-opacity="0.25"/>
<path d="M48.0013 4.5C48.0016 3.30653 48.4761 2.16207 49.3202 1.3184C50.1644 0.47473 51.3091 0.000954179 52.5026 0.00129796C53.6961 0.00164174 54.8405 0.476077 55.6842 1.32023C56.5279 2.16439 57.0016 3.30912 57.0013 4.50259L56.0332 4.50231C56.0335 3.56559 55.6616 2.66713 54.9995 2.00457C54.3373 1.34202 53.439 0.969645 52.5023 0.969376C51.5656 0.969106 50.6671 1.34096 50.0046 2.00313C49.342 2.66531 48.9696 3.56356 48.9694 4.50028L48.0013 4.5Z" fill="#12C868" fill-opacity="0.25"/>
</svg>
