<svg width="44" height="44" viewBox="0 0 44 44" fill="none" xmlns="http://www.w3.org/2000/svg">
<rect width="44" height="44" rx="22" fill="#976FCC"/>
<rect x="12" y="12" width="20" height="20" rx="10" fill="white"/>
<path d="M27.6561 25.6879L27.6856 25.6287C27.8593 25.2815 27.7185 24.8593 27.3713 24.6856L25.3948 23.6974C25.1693 23.5846 24.895 23.6574 24.7552 23.8673L24.4897 24.2655C24.2099 24.6851 23.6615 24.8307 23.2104 24.6052L21.8353 23.9176C21.279 23.6395 20.7304 23.3358 20.2819 22.905C19.8241 22.4653 19.2682 21.8046 19 21C18.8335 20.5006 19.2824 20.0302 19.6318 19.7536C19.8316 19.5954 19.924 19.3227 19.8236 19.0884L18.6684 16.3929C18.5695 16.1623 18.3259 16.029 18.0783 16.0703C16.6377 16.3104 15.6431 17.6445 15.8242 19.0937L15.9379 20.0035C15.9791 20.333 16.0647 20.6554 16.1924 20.9619L16.3637 21.3729C17.6968 24.5724 20.5524 26.8848 23.9593 27.5236C25.4632 27.8056 26.9718 27.0565 27.6561 25.6879Z" fill="#976FCC"/>
<path d="M12.5 32L14 28L17 30.5L12.5 32Z" fill="white"/>
</svg>
