<svg width="44" height="44" viewBox="0 0 44 44" fill="none" xmlns="http://www.w3.org/2000/svg">
<rect width="44" height="44" rx="22" fill="#12C868"/>
<rect x="12" y="14" width="20" height="17" rx="7" fill="white"/>
<path d="M14.5711 33.3601L15 29.5L19 31L15.0357 33.6429C14.8236 33.7843 14.5429 33.6135 14.5711 33.3601Z" fill="white"/>
<path d="M23.5 23C23.5 23.2761 23.7239 23.5 24 23.5C24.2761 23.5 24.5 23.2761 24.5 23H23.5ZM23.3994 21.5062L23.047 21.8609L23.047 21.8609L23.3994 21.5062ZM21.9355 20.5176C21.6617 20.5532 21.4686 20.8041 21.5042 21.0779C21.5398 21.3518 21.7907 21.5449 22.0645 21.5093L21.9355 20.5176ZM24.5 23C24.5 22.655 24.4346 22.3126 24.3069 21.9948L23.3791 22.3679C23.4583 22.565 23.5 22.7806 23.5 23H24.5ZM24.3069 21.9948C24.1791 21.677 23.9909 21.389 23.7517 21.1514L23.047 21.8609C23.1856 21.9986 23.2998 22.1708 23.3791 22.3679L24.3069 21.9948ZM23.7517 21.1514C23.5124 20.9137 23.2271 20.7317 22.913 20.6211L22.5809 21.5643C22.7492 21.6236 22.9085 21.7234 23.047 21.8609L23.7517 21.1514ZM22.913 20.6211C22.5986 20.5104 22.2652 20.4748 21.9355 20.5176L22.0645 21.5093C22.2373 21.4868 22.4129 21.5052 22.5809 21.5643L22.913 20.6211Z" fill="#12C868"/>
<path d="M25.5 23C25.5 23.2761 25.7239 23.5 26 23.5C26.2761 23.5 26.5 23.2761 26.5 23H25.5ZM24.7987 20.0123L24.4464 20.3671L24.4464 20.3671L24.7987 20.0123ZM21.9355 18.5311C21.6617 18.5667 21.4686 18.8176 21.5042 19.0914C21.5398 19.3652 21.7907 19.5583 22.0645 19.5227L21.9355 18.5311ZM26.5 23C26.5 22.3728 26.3811 21.7514 26.1498 21.1762L25.222 21.5492C25.4048 22.0039 25.5 22.4984 25.5 23H26.5ZM26.1498 21.1762C25.9185 20.6009 25.5792 20.0828 25.1511 19.6576L24.4464 20.3671C24.7739 20.6924 25.0392 21.0947 25.222 21.5492L26.1498 21.1762ZM25.1511 19.6576C24.7229 19.2322 24.2152 18.9093 23.6599 18.7138L23.3278 19.657C23.7373 19.8012 24.119 20.0419 24.4464 20.3671L25.1511 19.6576ZM23.6599 18.7138C23.1044 18.5182 22.5164 18.4555 21.9355 18.5311L22.0645 19.5227C22.4885 19.4676 22.9186 19.513 23.3278 19.657L23.6599 18.7138Z" fill="#12C868"/>
<path d="M27.5 23C27.5 23.2761 27.7239 23.5 28 23.5C28.2761 23.5 28.5 23.2761 28.5 23H27.5ZM26.1981 18.5185L26.5505 18.1637L26.5505 18.1637L26.1981 18.5185ZM24.2408 17.2781L24.4069 16.8065L24.4069 16.8065L24.2408 17.2781ZM21.9355 16.5445C21.6617 16.5801 21.4686 16.831 21.5042 17.1048C21.5398 17.3787 21.7907 17.5718 22.0645 17.5362L21.9355 16.5445ZM28.5 23C28.5 22.0906 28.3276 21.1903 27.9928 20.3576L27.065 20.7306C27.3513 21.4427 27.5 22.2162 27.5 23H28.5ZM27.9928 20.3576C27.658 19.5248 27.1674 18.7766 26.5505 18.1637L25.8457 18.8732C26.3622 19.3862 26.7787 20.0186 27.065 20.7306L27.9928 20.3576ZM26.5505 18.1637C25.9333 17.5508 25.2033 17.0869 24.4069 16.8065L24.0748 17.7497C24.7254 17.9788 25.3295 18.3604 25.8457 18.8732L26.5505 18.1637ZM24.4069 16.8065C23.6102 16.526 22.7676 16.4363 21.9355 16.5445L22.0645 17.5362C22.7397 17.4484 23.4244 17.5208 24.0748 17.7497L24.4069 16.8065Z" fill="#12C868"/>
<path d="M27.2066 26.4135C26.6885 25.8954 25.7758 25.4122 25.2082 25.1406C24.8989 24.9926 24.5213 25.0214 24.3013 25.2843C23.9977 25.6469 23.9648 25.9135 23.2066 25.9135C20.6571 25.9135 18.9919 23.7572 18.849 23.4166C18.7061 23.076 18.3532 22.158 18.849 21.6368C19.6231 20.823 19.6984 20.0742 18.2346 18.0973C17.9395 17.6988 17.3797 17.5824 16.9585 17.8442C16.2452 18.2876 15.5213 18.933 15.2065 20.4135C14.8853 21.9244 16.2 24.5006 16.7633 25.4727C17.3265 26.4448 18.5279 27.3363 19.467 27.8445C20.5551 28.4334 22.4111 28.9946 24.2066 28.9135C26.0021 28.8324 27.7066 26.9135 27.2066 26.4135Z" fill="#12C868"/>
</svg>
